<svg width="14" height="16" viewBox="0 0 14 16" fill="none" xmlns="http://www.w3.org/2000/svg">
<path d="M2.38246 2.42591C4.93276 -0.124393 9.06763 -0.124393 11.6179 2.42591C14.1682 4.97622 14.1682 9.11112 11.6179 11.6614L10.7277 12.5418C10.0716 13.1858 9.22019 14.0138 8.17334 15.0259C7.51911 15.6585 6.48126 15.6584 5.82718 15.0258L3.20886 12.4788C2.87979 12.1557 2.60434 11.8833 2.38246 11.6614C-0.16785 9.11112 -0.16785 4.97622 2.38246 2.42591ZM10.8224 3.22141C8.71146 1.11044 5.28892 1.11044 3.17795 3.22141C1.06699 5.33237 1.06699 8.75495 3.17795 10.8659L4.29326 11.9665C4.90744 12.5676 5.67951 13.3179 6.60928 14.2171C6.82731 14.4279 7.17328 14.428 7.39131 14.2172L9.93748 11.7411C10.2892 11.3958 10.5842 11.1041 10.8224 10.8659C12.9334 8.75495 12.9334 5.33237 10.8224 3.22141ZM7.00018 4.9989C8.24346 4.9989 9.25138 6.00678 9.25138 7.25007C9.25138 8.49335 8.24346 9.5012 7.00018 9.5012C5.75691 9.5012 4.74904 8.49335 4.74904 7.25007C4.74904 6.00678 5.75691 4.9989 7.00018 4.9989ZM7.00018 6.1239C6.37821 6.1239 5.87406 6.6281 5.87406 7.25007C5.87406 7.87205 6.37821 8.3762 7.00018 8.3762C7.62216 8.3762 8.12638 7.87205 8.12638 7.25007C8.12638 6.6281 7.62216 6.1239 7.00018 6.1239Z" fill="#252525"/>
</svg>
